<?xml version="1.0"?>
<svg xmlns="http://www.w3.org/2000/svg" xmlns:xlink="http://www.w3.org/1999/xlink" xmlns:svgjs="http://svgjs.com/svgjs" version="1.1" width="512" height="512" x="0" y="0" viewBox="0 0 510 510" style="enable-background:new 0 0 512 512" xml:space="preserve" class=""><g><g xmlns="http://www.w3.org/2000/svg"><path d="m54.77 0h400.46v510h-400.46z" fill="#eef4ff" data-original="#eef4ff" style=""/><path d="m255 0h200.23v510h-200.23z" fill="#d9e6fc" data-original="#d9e6fc" style="" class=""/><circle cx="336.23" cy="391" fill="#f9be61" r="55" data-original="#f96192" style="" class=""/><path d="m391.23 64v87h-30v-57h-210v57h-30v-87z" fill="#514899" data-original="#514899" style="" class=""/><path d="m255 94v-30h136.23v87h-30v-57z" fill="#39326c" data-original="#39326c" style=""/><path d="m184.23 128h144v30h-144z" fill="#514899" data-original="#514899" style="" class=""/><path d="m255 128h73.23v30h-73.23z" fill="#39326c" data-original="#39326c" style=""/><path d="m120.23 216h272v30h-272z" fill="#514899" data-original="#514899" style="" class=""/><path d="m255 216h137.23v30h-137.23z" fill="#39326c" data-original="#39326c" style=""/><path d="m120.23 280h272v30h-272z" fill="#514899" data-original="#514899" style="" class=""/><path d="m255 280h137.23v30h-137.23z" fill="#39326c" data-original="#39326c" style=""/><g fill="#514899"><path d="m144.23 352h88v30h-88z" fill="#514899" data-original="#514899" style="" class=""/><path d="m144.23 416h88v30h-88z" fill="#514899" data-original="#514899" style="" class=""/></g></g></g></svg>
