<?xml version="1.0"?>
<svg xmlns="http://www.w3.org/2000/svg" xmlns:xlink="http://www.w3.org/1999/xlink" xmlns:svgjs="http://svgjs.com/svgjs" version="1.1" width="512" height="512" x="0" y="0" viewBox="0 0 512 512" style="enable-background:new 0 0 512 512" xml:space="preserve" class=""><g><g xmlns="http://www.w3.org/2000/svg"><g><path d="m245 5.5c-52.73 0-101.567 16.661-141.54 45.002v399.996c39.973 28.341 88.81 45.002 141.54 45.002 135.31 0 245-109.69 245-245s-109.69-245-245-245z" fill="#ffc230" data-original="#66cd59" style=""/></g><g><path d="m464 50.5h-360.54c-12.55 8.9-24.23 18.95-34.88 30v340c10.65 11.05 22.33 21.1 34.88 30h360.54c16.57 0 30-13.43 30-30v-340c0-16.57-13.43-30-30-30z" fill="#574f7f" data-original="#574f7f" style=""/></g><g><path d="m179.198 435.5c0-8.284 6.716-15 15-15v-340c-8.284 0-15-6.716-15-15s6.716-15 15-15h-90.738c-12.55 8.9-24.23 18.95-34.88 30v340c10.65 11.05 22.33 21.1 34.88 30h90.738c-8.284 0-15-6.716-15-15z" fill="#493d71" data-original="#493d71" style=""/></g><g><path d="m464 110.5v280c-16.57 0-30 13.43-30 30h-365.42c-42.47-44.06-68.58-103.97-68.58-170s26.11-125.94 68.58-170h365.42c0 16.57 13.43 30 30 30z" fill="#f9f0e1" data-original="#f9f0e1" style=""/></g><g><path d="m127.21 253v-172.5h-58.63c-42.47 44.06-68.58 103.97-68.58 170s26.11 125.94 68.58 170h365.42c0-16.569 13.431-30 30-30v-37.5h-236.79c-55.229 0-100-44.772-100-100z" fill="#f0e2c5" data-original="#f0e2c5" style=""/></g><g><path d="m375.528 293h-371.854c.884 5.057 1.938 10.055 3.128 15h368.726c4.142 0 7.5-3.358 7.5-7.5s-3.358-7.5-7.5-7.5z" fill="#f0e2c5" data-original="#f0e2c5" style=""/></g><g><path d="m135.539 293h-131.865c0 .002.001.004.001.006.272 1.557.568 3.107.87 4.654.154.783.31 1.566.471 2.346.124.603.255 1.203.383 1.804.445 2.072.909 4.137 1.403 6.19h136.887c-3.124-4.734-5.856-9.749-8.15-15z" fill="#e5d2b1" data-original="#e5d2b1" style="" class=""/></g><g><path d="m375.528 323h-364.612c1.569 5.071 3.29 10.076 5.173 15h359.439c4.142 0 7.5-3.358 7.5-7.5s-3.358-7.5-7.5-7.5z" fill="#f0e2c5" data-original="#f0e2c5" style=""/></g><g><path d="m174.519 338c-6.831-4.244-13.112-9.287-18.714-15h-144.889c.656 2.122 1.346 4.229 2.056 6.326.239.703.478 1.406.723 2.106.269.772.541 1.543.818 2.311.514 1.424 1.036 2.845 1.576 4.257z" fill="#e5d2b1" data-original="#e5d2b1" style="" class=""/></g><g><path d="m224.5 353h-202.08c2.352 5.098 4.875 10.099 7.559 15h194.521c4.142 0 7.5-3.358 7.5-7.5s-3.358-7.5-7.5-7.5z" fill="#e5d2b1" data-original="#e5d2b1" style="" class=""/></g><g><path d="m355.879 133h-325.9c-6.952 12.694-12.819 26.066-17.462 40h343.362c11.046 0 20-8.954 20-20s-8.954-20-20-20z" fill="#f0e2c5" data-original="#f0e2c5" style=""/></g><g><path d="m127.21 173v-40h-97.231c-6.951 12.691-12.816 26.06-17.458 39.99-.001.004-.002.007-.004.01z" fill="#e5d2b1" data-original="#e5d2b1" style="" class=""/></g><g><path d="m273.79 240.5h-189.935c-4.142 0-7.5-3.358-7.5-7.5 0-4.142 3.358-7.5 7.5-7.5h189.935c4.142 0 7.5 3.358 7.5 7.5 0 4.142-3.358 7.5-7.5 7.5z" fill="#fbb03b" data-original="#fbb03b" style=""/></g><g><path d="m83.855 240.5h43.355v-15h-43.355c-4.142 0-7.5 3.358-7.5 7.5s3.358 7.5 7.5 7.5z" fill="#f7931e" data-original="#f7931e" style=""/></g><g><circle cx="178.822" cy="233" fill="#f9c55d" r="20" data-original="#f9c55d" style=""/></g><g><path d="m462 380.725h-100v115.76c0 7.773 8.48 12.574 15.145 8.575l24.565-14.739c6.334-3.8 14.246-3.8 20.58 0l24.565 14.739c6.665 3.999 15.145-.802 15.145-8.575z" fill="#ed435c" data-original="#ed435c" style="" class=""/></g><g><path d="m428.63 380.725h-33.37v113.465l6.449-3.87c6.334-3.8 14.246-3.8 20.58 0l6.34 3.804v-113.399z" fill="#da2f3c" data-original="#da2f3c" style="" class=""/></g><g><path d="m512 335.138c0-5.103-2.55-9.607-6.443-12.317 3.059-3.625 4.356-8.636 3.035-13.565s-4.95-8.62-9.411-10.23c2.017-4.293 1.973-9.469-.579-13.888-2.551-4.419-7.012-7.045-11.738-7.445.837-4.669-.546-9.657-4.154-13.265s-8.597-4.99-13.265-4.154c-.4-4.726-3.026-9.187-7.445-11.738s-9.595-2.595-13.888-.579c-1.61-4.462-5.301-8.091-10.23-9.411-4.929-1.321-9.94-.023-13.565 3.035-2.71-3.893-7.214-6.443-12.317-6.443s-9.607 2.55-12.317 6.443c-3.625-3.059-8.636-4.356-13.565-3.035s-8.62 4.95-10.23 9.411c-4.293-2.017-9.469-1.973-13.888.579-4.419 2.551-7.045 7.012-7.445 11.738-4.669-.837-9.657.546-13.265 4.154s-4.99 8.597-4.154 13.265c-4.726.4-9.187 3.026-11.738 7.445s-2.595 9.595-.579 13.888c-4.462 1.61-8.091 5.301-9.411 10.23-1.321 4.929-.023 9.94 3.035 13.565-3.893 2.71-6.443 7.214-6.443 12.317s2.55 9.607 6.443 12.317c-3.059 3.625-4.356 8.636-3.035 13.565s4.95 8.62 9.411 10.23c-2.017 4.293-1.973 9.469.579 13.888 2.551 4.419 7.012 7.045 11.738 7.445-.837 4.669.546 9.657 4.154 13.265s8.597 4.99 13.265 4.154c.4 4.726 3.026 9.187 7.445 11.738s9.595 2.595 13.888.579c1.61 4.462 5.301 8.091 10.23 9.411 4.929 1.321 9.94.023 13.565-3.035 2.71 3.893 7.214 6.443 12.317 6.443s9.607-2.55 12.317-6.443c3.625 3.059 8.636 4.356 13.565 3.035s8.62-4.95 10.23-9.411c4.293 2.017 9.469 1.973 13.888-.579 4.419-2.551 7.045-7.012 7.445-11.738 4.669.837 9.657-.546 13.265-4.154s4.99-8.597 4.154-13.265c4.726-.4 9.187-3.026 11.738-7.445s2.595-9.595.579-13.888c4.462-1.61 8.091-5.301 9.411-10.23 1.321-4.929.023-9.94-3.035-13.565 3.893-2.709 6.443-7.214 6.443-12.317z" fill="#f9c55d" data-original="#f9c55d" style=""/></g><g><g><circle cx="412" cy="335.138" fill="#f7931e" r="80" data-original="#f7931e" style=""/></g><g><path d="m358.588 275.635 112.915 112.915c4.837-5.383 8.953-11.423 12.202-17.968l-107.149-107.149c-6.546 3.249-12.586 7.366-17.968 12.202z" fill="#f47a21" data-original="#f47a21" style="" class=""/></g><g><path d="m428.548 256.864 61.727 61.727c-6.516-30.858-30.87-55.211-61.727-61.727z" fill="#f47a21" data-original="#f47a21" style="" class=""/></g><g><path d="m394.453 413.195-60.509-60.509c6.751 30.05 30.458 53.757 60.509 60.509z" fill="#f47a21" data-original="#f47a21" style="" class=""/></g><g><path d="m337.486 306.022 103.63 103.63c9.185-3.602 17.548-8.854 24.722-15.391l-112.96-112.96c-6.538 7.173-11.79 15.536-15.392 24.721z" fill="#f47a21" data-original="#f47a21" style="" class=""/></g><g><path d="m388.746 258.589 99.803 99.803c1.218-4.003 2.129-8.137 2.708-12.377l-90.135-90.135c-4.239.58-8.373 1.491-12.376 2.709z" fill="#f47a21" data-original="#f47a21" style="" class=""/></g><g><path d="m332.979 322.637c-.642 4.075-.979 8.249-.979 12.502 0 .543.01 1.084.021 1.625l78.355 78.355c.541.011 1.082.021 1.625.021 4.252 0 8.427-.337 12.502-.979z" fill="#f47a21" data-original="#f47a21" style="" class=""/></g><g><g><ellipse cx="396.51" cy="306.547" fill="#f9c55d" rx="11.321" ry="16.828" transform="matrix(.996 -.087 .087 .996 -25.209 35.725)" data-original="#f9c55d" style=""/></g><g><ellipse cx="373.44" cy="330.382" fill="#f9c55d" rx="11.321" ry="14.709" transform="matrix(.985 -.174 .174 .985 -51.697 69.866)" data-original="#f9c55d" style=""/></g><g><path d="m439.078 347.164c-14.572-8.72-14.342-19.505-27.078-19.505s-12.506 10.785-27.078 19.505-14.113 27.193-1.147 32.126c12.965 4.934 17.67-6.54 28.225-6.54 10.556 0 15.26 11.474 28.225 6.54 12.966-4.933 13.425-23.406-1.147-32.126z" fill="#f9c55d" data-original="#f9c55d" style=""/></g><g><path d="m407.018 364.253c-13.309.306-17.134-17.593-9.599-28.115-2.938 3.417-6.436 7.399-12.497 11.027-14.572 8.72-14.113 27.193-1.147 32.126 12.965 4.934 17.669-6.54 28.225-6.54s15.26 11.474 28.225 6.54c5.755-2.19 9.039-7.048 9.645-12.536-11.869 17.562-23.875-2.938-42.852-2.502z" fill="#fbb03b" data-original="#fbb03b" style=""/></g><g><ellipse cx="427.49" cy="306.547" fill="#f9c55d" rx="16.828" ry="11.321" transform="matrix(.087 -.996 .996 .087 84.851 705.693)" data-original="#f9c55d" style=""/></g><g><ellipse cx="450.56" cy="330.382" fill="#f9c55d" rx="14.709" ry="11.321" transform="matrix(.174 -.985 .985 .174 46.958 716.726)" data-original="#f9c55d" style=""/></g><g><path d="m403.561 317.727c-6.229.545-11.934-6.519-12.744-15.777-.384-4.389.403-8.482 1.998-11.633-5.01 2.005-8.292 9.108-7.582 17.217.81 9.259 6.516 16.322 12.744 15.777 3.276-.287 6.042-2.623 7.813-6.118-.711.284-1.456.467-2.229.534z" fill="#fbb03b" data-original="#fbb03b" style=""/></g><g><path d="m381.578 339.284c-6.157 1.086-12.292-4.52-13.703-12.52-.669-3.795-.153-7.446 1.23-10.353-5.095 2.06-8.082 8.741-6.814 15.937 1.411 8 7.546 13.605 13.703 12.52 3.236-.571 5.833-2.878 7.365-6.098-.569.229-1.162.404-1.781.514z" fill="#fbb03b" data-original="#fbb03b" style=""/></g><g><path d="m431.607 317.727c-6.228-.545-10.621-8.492-9.811-17.751.309-3.535 1.334-6.748 2.827-9.342-4.351 2.125-7.795 7.889-8.411 14.925-.81 9.259 3.583 17.206 9.811 17.751 3.85.337 7.499-2.236 9.917-6.436-1.374.673-2.838.984-4.333.853z" fill="#fbb03b" data-original="#fbb03b" style=""/></g><g><path d="m453.59 339.284c-6.157-1.086-10.005-8.451-8.595-16.451.386-2.188 1.127-4.194 2.123-5.936-3.737 1.937-6.768 6.197-7.707 11.52-1.411 8 2.437 15.366 8.595 16.451 4.474.789 8.933-1.956 11.58-6.584-1.879.974-3.936 1.363-5.996 1z" fill="#fbb03b" data-original="#fbb03b" style=""/></g></g></g></g></g></svg>
